<svg width="1440" height="1657" viewBox="0 0 1440 1657" fill="none" xmlns="http://www.w3.org/2000/svg">
<path d="M528.708 109.185L341.439 217.646L338.838 612.213L120.356 738.1L119.576 761.509L119.056 784.657L135.702 794.281C145.065 799.743 154.169 804.165 155.99 804.165C157.81 804.165 209.049 775.554 269.652 740.441C352.883 692.583 380.973 677.497 384.095 679.318C386.435 680.619 453.801 719.633 533.91 765.67L679.565 849.942L680.345 1025.51L680.865 1201.07L532.35 1286.64C450.679 1333.98 382.534 1372.74 380.713 1373C379.153 1373.52 310.487 1334.76 228.296 1287.16L78.7408 1200.81L77.9605 1072.84L77.4403 945.137L41.2868 924.069C21.5194 912.365 4.09293 903.002 2.53235 903.002C0.191478 903.002 -0.588813 945.137 -0.0686188 1073.63L0.711672 1244.25L182.78 1349.59C282.917 1407.33 368.489 1456.49 372.65 1458.57L380.453 1462.47L547.956 1365.97C640.03 1312.91 716.759 1268.7 718.319 1268.18C720.14 1267.4 769.298 1294.71 827.82 1328.52C886.602 1362.33 936.801 1391.2 939.662 1392.5C943.823 1394.32 949.025 1392.5 963.851 1383.92L982.838 1373L981.277 1328.52L879.839 1269.74C823.919 1237.49 773.98 1208.62 768.518 1205.49L758.894 1199.77L759.414 1025.25L760.195 850.722L910.791 763.85C1025.23 697.785 1062.43 677.497 1065.55 679.318C1067.89 680.619 1135.25 719.633 1215.36 765.93L1361.02 849.942L1361.8 1025.51L1362.32 1201.07L1251.78 1264.54L1141.24 1328.26V1371.7C1141.24 1395.89 1142.02 1415.39 1143.32 1415.13C1144.36 1415.13 1211.2 1376.64 1292.09 1330.08L1439.05 1245.03V806.505L1269.46 708.449L1099.62 610.652V352.896L1080.11 341.972L1060.87 330.788L1041.88 341.972L1022.89 353.417L1020.29 611.953L872.036 697.785C790.626 744.863 721.961 783.097 719.62 782.837C717.279 782.316 648.353 743.562 566.683 696.224L418.167 610.652V261.862L566.943 176.03C648.873 128.693 717.019 89.9382 718.839 89.418C721.44 88.8978 911.571 196.318 937.061 212.704C942.003 215.825 946.424 214.004 981.017 193.977C1002.08 181.492 1018.99 171.349 1018.47 170.828C1012.23 165.626 722.221 0.464819 719.62 0.724916C717.539 0.724916 631.707 49.6232 528.708 109.185Z" fill="url(#paint0_linear)"/>
<path d="M891.649 295.931C799.314 349.251 722.586 393.208 721.025 393.208C719.464 393.208 668.225 364.597 607.623 329.484L497.081 265.76L479.915 275.384L462.749 285.267L462.489 307.636V330.004L573.03 393.468L683.311 456.931L683.571 587.76V718.329L692.154 723.531C696.576 726.392 705.419 731.334 711.141 734.455L722.065 740.177L740.532 728.993L758.999 718.069V456.931L906.734 371.88C987.885 325.062 1056.29 286.048 1058.63 285.267C1061.75 283.967 1109.61 310.237 1213.91 370.059L1364.77 456.931L1366.33 719.369L1439.15 762.025L1439.93 590.101C1440.19 495.686 1439.67 417.397 1438.63 416.356C1435.77 413.755 1065.39 200.216 1062.01 199.435C1060.71 198.915 983.983 242.351 891.649 295.931Z" fill="url(#paint1_linear)"/>
<path d="M150.236 330.285L3.28159 415.337L2.50129 632.778L1.9811 850.219L172.345 948.536L342.708 1046.59V1308.25L361.175 1318.91L379.902 1329.84L398.889 1318.91L418.137 1307.73V1046.59L528.158 983.129L637.919 919.665L638.699 897.817L639.219 875.709L621.793 865.825C608.007 858.022 603.066 856.461 598.904 858.282C596.043 859.583 545.844 888.453 487.062 922.526L380.422 984.169L372.62 980.008C368.458 977.667 300.573 938.392 221.763 893.135L78.7098 810.424L78.1896 633.818L77.4093 456.952L298.492 329.505V287.369C298.492 263.96 298.232 244.973 297.972 245.233C297.451 245.233 231.127 283.468 150.236 330.285Z" fill="url(#paint2_linear)"/>
<path d="M1174.98 918.615C1113.07 954.509 1060.79 983.379 1059.23 982.859C1057.93 982.079 1007.73 953.468 947.912 918.875C888.089 884.542 838.411 856.192 837.631 856.192C836.59 856.192 828.527 860.613 819.424 865.815L803.038 875.439V897.807L803.298 919.916L913.579 983.379L1024.12 1046.84V1398.75L875.605 1484.33C793.934 1531.66 724.749 1570.42 722.148 1570.94C719.286 1571.46 669.348 1544.15 606.665 1508L496.123 1444.27L464.132 1462.74C446.705 1472.88 430.839 1482.51 429.018 1484.33C426.157 1486.93 454.508 1504.09 573.112 1572.5C654.002 1619.32 721.887 1657.03 723.448 1656.25C725.009 1655.47 810.06 1606.57 912.278 1547.53L1098.25 1440.11L1100.85 1045.8L1210.09 982.599L1319.33 919.656L1320.11 894.946L1320.63 870.497L1305.28 861.914C1296.7 857.492 1289.42 853.591 1288.9 853.591C1288.38 853.591 1237.14 882.982 1174.98 918.615Z" fill="url(#paint3_linear)"/>
<defs>
<linearGradient id="paint0_linear" x1="719.888" y1="0.724609" x2="719.888" y2="1656.26" gradientUnits="userSpaceOnUse">
<stop stop-color="#171920" stop-opacity="0"/>
<stop offset="0.491713" stop-color="#171920"/>
<stop offset="1" stop-color="#171920" stop-opacity="0"/>
</linearGradient>
<linearGradient id="paint1_linear" x1="719.888" y1="0.724609" x2="719.888" y2="1656.26" gradientUnits="userSpaceOnUse">
<stop stop-color="#171920" stop-opacity="0"/>
<stop offset="0.491713" stop-color="#171920"/>
<stop offset="1" stop-color="#171920" stop-opacity="0"/>
</linearGradient>
<linearGradient id="paint2_linear" x1="719.888" y1="0.724609" x2="719.888" y2="1656.26" gradientUnits="userSpaceOnUse">
<stop stop-color="#171920" stop-opacity="0"/>
<stop offset="0.491713" stop-color="#171920"/>
<stop offset="1" stop-color="#171920" stop-opacity="0"/>
</linearGradient>
<linearGradient id="paint3_linear" x1="719.888" y1="0.724609" x2="719.888" y2="1656.26" gradientUnits="userSpaceOnUse">
<stop stop-color="#171920" stop-opacity="0"/>
<stop offset="0.491713" stop-color="#171920"/>
<stop offset="1" stop-color="#171920" stop-opacity="0"/>
</linearGradient>
</defs>
</svg>
