<svg width="520" height="55" viewBox="0 0 520 55" fill="none" xmlns="http://www.w3.org/2000/svg">
<path fill-rule="evenodd" clip-rule="evenodd" d="M390.155 54.6696L371.443 35.9571C370.855 35.3605 370.554 34.6413 370.554 33.8163V20.8576C370.554 20.0283 370.855 19.3049 371.443 18.7168L390.155 0H400.969V1.27345L374.912 27.3348L400.969 53.4004V54.6696H390.155ZM354.16 54.6696H363.26V0H354.16V54.6696Z" fill="#D91F43"/>
<path fill-rule="evenodd" clip-rule="evenodd" d="M414.33 0V42.4766C414.33 43.3185 414.63 44.0335 415.21 44.6174L424.378 53.7812C424.962 54.3692 425.685 54.6696 426.515 54.6696H455.377V46.1616H423.443V31.5867H452.263V23.0872H423.443V8.51225H455.377V0H414.33Z" fill="#D91F43"/>
<path fill-rule="evenodd" clip-rule="evenodd" d="M472.135 0.330383H487.145C487.983 0.330383 488.694 0.634997 489.286 1.22307L510.402 22.3345V0.330383H519.511V55H510.402V34.4217L481.248 5.26343V55H472.135V0.330383Z" fill="#D91F43"/>
<path fill-rule="evenodd" clip-rule="evenodd" d="M230.096 0H261.374C270.732 0 276.71 6.99764 276.71 15.5014C276.71 24.0052 270.732 31.1509 261.374 31.1509H251.393L275.047 53.4554V54.6696H264.115L247.463 39.1682C246.824 38.5759 246.498 37.8271 246.498 36.9471V23.0872H260.769C265.452 23.0872 267.758 19.8887 267.758 15.6072C267.758 11.3384 265.444 8.40225 260.769 8.40225H239.213V54.6696H230.096V0Z" fill="#D91F43"/>
<path fill-rule="evenodd" clip-rule="evenodd" d="M204.241 54.6696L185.525 35.9571C184.941 35.3605 184.645 34.6413 184.645 33.8163V20.8576C184.645 20.0283 184.941 19.3049 185.525 18.7168L204.241 0H215.051V1.27345L188.998 27.3348L215.051 53.4004V54.6696H204.241Z" fill="#D91F43"/>
<path fill-rule="evenodd" clip-rule="evenodd" d="M168.225 54.6696H177.333V0H168.225V54.6696Z" fill="#D91F43"/>
<path fill-rule="evenodd" clip-rule="evenodd" d="M106.126 0H134.675V8.51225H115.235V54.6696H106.126V8.51225H86.6855V0H106.126Z" fill="#D91F43"/>
<path fill-rule="evenodd" clip-rule="evenodd" d="M62.8164 54.6696H71.9252V0H62.8164V54.6696Z" fill="#D91F43"/>
<path fill-rule="evenodd" clip-rule="evenodd" d="M35.9994 54.6696L17.2826 35.9571C16.6987 35.3605 16.4068 34.6413 16.4068 33.8163V20.8576C16.4068 20.0283 16.6987 19.3049 17.2826 18.7168L35.9994 0H46.8174V1.27345L20.756 27.3348L46.8174 53.4004V54.6696H35.9994ZM0 54.6696H9.11724V0H0V54.6696Z" fill="#D91F43"/>
<path fill-rule="evenodd" clip-rule="evenodd" d="M306.737 0H319.548C320.42 0 321.164 0.533073 321.452 1.35807L339.449 53.2692V54.6696H330.303L313.147 4.80189L295.983 54.6696H286.836V53.2692L304.834 1.35807C305.121 0.533073 305.862 0 306.737 0Z" fill="#D91F43"/>
</svg>
