<svg width="113" height="129" viewBox="0 0 113 129" fill="none" xmlns="http://www.w3.org/2000/svg">
<path d="M41.2145 8.45135L26.6223 16.9026L26.521 32.2649L26.4197 47.6474L17.9076 52.552L9.39554 57.4565L9.33474 59.2806L9.29421 61.0843L10.5913 61.8342C11.3209 62.2598 12.0302 62.6043 12.1721 62.6043C12.314 62.6043 16.3065 60.375 21.0287 57.6389C27.5141 53.9099 29.7029 52.7344 29.9461 52.8762C30.1285 52.9776 35.3776 56.0176 41.6198 59.6048L52.9692 66.1713L53.03 79.8514L53.0705 93.5315L41.4982 100.199C35.1344 103.888 29.8245 106.908 29.6826 106.928C29.561 106.968 24.2106 103.949 17.8063 100.24L6.15285 93.5112L6.09205 83.54L6.05152 73.5889L3.23443 71.9473C1.69415 71.0353 0.336272 70.3057 0.214671 70.3057C0.0322695 70.3057 -0.028531 73.5889 0.0120026 83.6008L0.0728031 96.8958L14.2596 105.104C22.0623 109.603 28.7301 113.434 29.0544 113.596L29.6624 113.9L42.7142 106.381C49.8887 102.246 55.8674 98.8009 55.989 98.7603C56.1308 98.6995 59.9613 100.828 64.5213 103.462C69.1016 106.097 73.0131 108.347 73.236 108.448C73.5603 108.59 73.9656 108.448 75.1208 107.779L76.6003 106.928L76.5395 105.185L76.4787 103.462L68.5747 98.8819C64.2173 96.3689 60.3261 94.1192 59.9005 93.876L59.1506 93.4302L59.1911 79.8311L59.2519 66.2321L70.9864 59.463C79.9038 54.3152 82.802 52.7344 83.0452 52.8762C83.2276 52.9776 88.4767 56.0176 94.7189 59.6251L106.068 66.1713L106.129 79.8514L106.17 93.5315L97.5562 98.4766L88.9428 103.442V106.827C88.9428 108.711 89.0036 110.231 89.105 110.211C89.186 110.211 94.3946 107.212 100.698 103.584L112.148 96.9566V79.8717V62.7867L98.9344 55.1461L85.7001 47.5258V37.4735V27.4414L84.1801 26.5902L82.6804 25.7187L81.2009 26.5902L79.7214 27.4819L79.6201 37.5545L79.5187 47.6271L67.9667 54.3152C61.6231 57.9835 56.2727 60.9627 56.0903 60.9424C55.9079 60.9019 50.5372 57.8821 44.1734 54.1936L32.6011 47.5258V33.9268V20.348L44.1937 13.6599C50.5777 9.97137 55.8876 6.95161 56.0295 6.91108C56.2322 6.87054 71.0472 15.2407 73.0334 16.5176C73.4184 16.7608 73.763 16.6189 76.4585 15.0583C78.1001 14.0855 79.4174 13.2951 79.3769 13.2546C78.8905 12.8493 56.293 -0.0201799 56.0903 9.5959e-05C55.9282 9.5959e-05 49.2401 3.81025 41.2145 8.45135Z" fill="#0061C5"/>
<path d="M69.495 23.0027C62.3002 27.1574 56.3215 30.5825 56.1999 30.5825C56.0783 30.5825 52.0857 28.3532 47.3636 25.6171L38.7502 20.6518L37.4126 21.4017L36.075 22.1718L36.0547 23.9147V25.6577L44.6681 30.6028L53.2612 35.5479L53.2815 45.7421V55.916L53.9503 56.3213C54.2948 56.5443 54.9839 56.9293 55.4298 57.1725L56.281 57.6184L57.7199 56.7469L59.1589 55.8957V45.7218V35.5479L70.6704 28.9206C76.9937 25.2726 82.3239 22.2326 82.5063 22.1718C82.7495 22.0705 86.4786 24.1174 94.6056 28.7788L106.36 35.5479L106.421 45.7826L106.482 55.997L109.319 57.6589L112.157 59.3208L112.217 45.9245C112.238 38.5676 112.197 32.4673 112.116 32.3863C111.893 32.1836 83.0332 15.5446 82.7697 15.4838C82.6684 15.4432 76.6897 18.8278 69.495 23.0027Z" fill="#F96500"/>
<path d="M11.724 25.6795L0.273209 32.3067L0.212409 49.2498L0.171875 66.1929L13.4467 73.8538L26.7214 81.4944V91.6886V101.883L28.1604 102.714L29.6196 103.565L31.0991 102.714L32.5988 101.842V91.6683V81.4944L41.1717 76.5493L49.7243 71.6041L49.7851 69.9017L49.8256 68.179L48.4677 67.4089C47.3936 66.8009 47.0085 66.6793 46.6843 66.8212C46.4613 66.9225 42.5498 69.1721 37.9695 71.8271L29.6601 76.6303L29.0521 76.306C28.7278 76.1236 23.4382 73.0634 17.2973 69.5369L6.15059 63.0921L6.11006 49.3309L6.04926 35.5494L14.6627 30.5841L23.2761 25.6187V22.3355C23.2761 20.5115 23.2558 19.032 23.2355 19.0522C23.195 19.0522 18.027 22.0315 11.724 25.6795Z" fill="#F96500"/>
<path d="M91.5718 71.5223C86.7483 74.3192 82.6746 76.5688 82.553 76.5282C82.4517 76.4674 78.5402 74.2381 73.8788 71.5426C69.2175 68.8674 65.3465 66.6583 65.2857 66.6583C65.2046 66.6583 64.5764 67.0028 63.867 67.4082L62.5902 68.158V69.901L62.6105 71.6237L71.2036 76.5688L79.817 81.5139V95.2143V108.935L68.2447 115.603C61.8809 119.291 56.4899 122.311 56.2872 122.352C56.0643 122.392 52.1731 120.264 47.2888 117.447L38.6754 112.482L36.1826 113.921C34.8247 114.711 33.5884 115.461 33.4466 115.603C33.2236 115.805 35.4327 117.143 44.6744 122.473C50.9773 126.121 56.267 129.06 56.3886 128.999C56.5102 128.938 63.1374 125.128 71.1023 120.528L85.593 112.157L85.6944 96.7951L85.7957 81.4328L94.3078 76.508L102.82 71.6034L102.881 69.6781L102.921 67.773L101.725 67.1042C101.057 66.7596 100.489 66.4556 100.449 66.4556C100.408 66.4556 96.4155 68.7458 91.5718 71.5223Z" fill="#F96500"/>
</svg>
